<svg width="23" height="23" viewBox="0 0 23 23" fill="none" xmlns="http://www.w3.org/2000/svg">
<path d="M10.8031 0C11.3176 0.254506 12.3465 1.93424 12.3465 3.05407C12.3465 4.1739 11.6571 4.58111 10.8031 4.58111C9.94919 4.58111 9.25984 4.4284 9.25984 3.30858C9.25984 2.18875 10.2887 1.52704 10.8031 0ZM18.0052 8.6532C20.5774 8.6532 22.6352 10.6892 22.6352 13.2343C22.6352 14.8224 21.8224 16.2171 20.5774 17.0417V22.9055H2.05774V17.0417C0.812808 16.2171 0 14.8224 0 13.2343C0 10.6892 2.05774 8.6532 4.62992 8.6532H9.25984V5.59913H12.3465V8.6532H18.0052ZM11.3176 15.7794C11.9998 15.7794 12.654 15.5112 13.1364 15.0339C13.6188 14.5566 13.8898 13.9093 13.8898 13.2343H15.4331C15.4331 13.9093 15.7041 14.5566 16.1864 15.0339C16.6688 15.5112 17.3231 15.7794 18.0052 15.7794C18.6874 15.7794 19.3417 15.5112 19.8241 15.0339C20.3064 14.5566 20.5774 13.9093 20.5774 13.2343C20.5774 12.5593 20.3064 11.912 19.8241 11.4347C19.3417 10.9574 18.6874 10.6892 18.0052 10.6892H4.62992C3.94774 10.6892 3.29349 10.9574 2.81112 11.4347C2.32874 11.912 2.05774 12.5593 2.05774 13.2343C2.05774 13.9093 2.32874 14.5566 2.81112 15.0339C3.29349 15.5112 3.94774 15.7794 4.62992 15.7794C5.31211 15.7794 5.96635 15.5112 6.44873 15.0339C6.9311 14.5566 7.2021 13.9093 7.2021 13.2343H8.74541C8.74541 13.9093 9.0164 14.5566 9.49878 15.0339C9.98116 15.5112 10.6354 15.7794 11.3176 15.7794Z" fill="black"/>
</svg>
